<svg width="50" height="50" viewBox="0 0 50 50" fill="none" xmlns="http://www.w3.org/2000/svg">
<circle cx="25" cy="25" r="25" fill="#F0F8FB"/>
<path fill-rule="evenodd" clip-rule="evenodd" d="M37.6 24.7823C37.6 25.6479 37.5119 26.5123 37.3388 27.355C37.17 28.1776 36.92 28.9852 36.5925 29.7572C36.2725 30.5156 35.8756 31.2464 35.4118 31.9279C34.9549 32.6052 34.4286 33.2405 33.8505 33.8197C33.2711 34.3964 32.6335 34.9212 31.9566 35.38C31.2729 35.8406 30.541 36.2369 29.7822 36.5584C29.009 36.8842 28.1995 37.1338 27.3776 37.3023C26.5339 37.4759 25.6663 37.5645 24.7994 37.5645C23.9319 37.5645 23.0643 37.4759 22.2218 37.3023C21.3987 37.1338 20.5892 36.8842 19.8167 36.5584C19.0579 36.2369 18.3253 35.8406 17.6416 35.38C16.9647 34.9213 16.3271 34.3964 15.749 33.8197C15.1702 33.2405 14.6439 32.6052 14.1864 31.9279C13.7251 31.2464 13.3276 30.5155 13.0063 29.7572C12.6788 28.9852 12.4282 28.1775 12.2588 27.355C12.0875 26.5123 12 25.6479 12 24.7823C12 23.916 12.0875 23.0497 12.2588 22.2089C12.4282 21.3863 12.6788 20.5774 13.0064 19.8067C13.3276 19.0477 13.7252 18.3163 14.1864 17.6347C14.644 16.9569 15.1703 16.3227 15.749 15.7429C16.3272 15.1662 16.9647 14.6426 17.6416 14.1845C18.3254 13.722 19.058 13.3257 19.8167 13.0036C20.5893 12.6771 21.3987 12.4269 22.2219 12.2596C23.0644 12.0874 23.9319 12 24.7995 12C25.6664 12 26.5339 12.0874 27.3777 12.2596C28.1996 12.4269 29.009 12.6772 29.7822 13.0036C30.541 13.3256 31.2729 13.722 31.9567 14.1845C32.6336 14.6426 33.2712 15.1662 33.8505 15.7429C34.4287 16.3227 34.955 16.9569 35.4119 17.6347C35.8756 18.3163 36.2725 19.0478 36.5925 19.8067C36.92 20.5774 37.17 21.3863 37.3388 22.2089C37.5119 23.0497 37.6 23.916 37.6 24.7823ZM20.1354 14.9091C17.0871 16.3465 14.812 19.1513 14.1026 22.5316L14.1131 22.5317C14.4866 22.5352 19.0012 22.5769 24.1944 21.1991C22.3024 17.8425 20.2811 15.1032 20.1354 14.9091ZM13.877 24.434C14.0707 24.4415 19.4716 24.5625 25.1 22.8799C25.4132 23.4928 25.7126 24.1145 25.987 24.7348C25.8432 24.776 25.6982 24.8185 25.5557 24.8659C19.6567 26.7707 16.6652 32.0702 16.669 32.0759C14.9276 30.1429 13.8682 27.5864 13.8682 24.7823C13.8682 24.7013 13.8709 24.6222 13.8736 24.5423L13.8736 24.5423L13.8736 24.5423L13.8736 24.5423L13.8736 24.5423L13.8736 24.5423C13.8748 24.5064 13.876 24.4704 13.877 24.434ZM32.0186 16.5899C30.094 14.8953 27.5671 13.8675 24.7994 13.8675C23.9112 13.8675 23.0493 13.9748 22.2237 14.1733L22.2414 14.1971L22.2414 14.1971L22.2414 14.1971L22.2415 14.1971C22.5004 14.5434 24.4922 17.2074 26.3101 20.5406C30.401 19.0092 31.966 16.6685 32.0176 16.5913L32.0186 16.5899ZM26.7054 26.552L26.732 26.5435C28.2702 30.5355 28.9052 33.8783 29.0671 34.832C27.7552 35.3893 26.3132 35.6971 24.7994 35.6971C22.2643 35.6971 19.9367 34.8276 18.0809 33.3865C18.1037 33.3371 20.2099 28.8124 26.6595 26.5673C26.6746 26.5617 26.69 26.5569 26.7054 26.552ZM30.9079 33.8347C33.3624 32.1807 35.1055 29.5544 35.5918 26.5123C35.3668 26.4399 32.3085 25.4731 28.7802 26.038C30.214 29.9725 30.7966 33.1768 30.9079 33.8347ZM27.8777 23.7499C27.6508 23.2175 27.4052 22.6877 27.1514 22.1671C31.4396 20.4183 33.1979 17.9099 33.2405 17.849L33.2412 17.8481C34.7749 19.7074 35.7019 22.0822 35.7269 24.6698C35.7239 24.6692 35.7195 24.6683 35.7139 24.6672C35.427 24.6075 31.7973 23.8526 28.114 24.3154C28.0371 24.1282 27.9584 23.9409 27.8777 23.7499Z" fill="#14586D"/>
</svg>
