<svg width="157" height="21" viewBox="0 0 157 21" fill="none" xmlns="http://www.w3.org/2000/svg">
<path d="M1.29604 20C1.09071 20 0.913372 19.9253 0.764039 19.776C0.614706 19.6267 0.540039 19.4493 0.540039 19.244V1.156C0.540039 0.950662 0.614706 0.773329 0.764039 0.623995C0.913372 0.474662 1.09071 0.399995 1.29604 0.399995H6.64404C6.84937 0.399995 7.02671 0.474662 7.17604 0.623995C7.32537 0.773329 7.40004 0.950662 7.40004 1.156V6.7L10.564 1.016C10.788 0.605328 11.1614 0.399995 11.684 0.399995H17.872C18.04 0.399995 18.18 0.465328 18.292 0.595996C18.4227 0.707995 18.488 0.847995 18.488 1.016C18.488 1.12799 18.46 1.23066 18.404 1.32399L13.364 9.78L18.88 19.076C18.936 19.1507 18.964 19.2533 18.964 19.384C18.964 19.552 18.8987 19.7013 18.768 19.832C18.656 19.944 18.516 20 18.348 20H11.964C11.6467 20 11.3947 19.9347 11.208 19.804C11.0214 19.6547 10.8907 19.5053 10.816 19.356L7.40004 13.252V19.244C7.40004 19.4493 7.32537 19.6267 7.17604 19.776C7.02671 19.9253 6.84937 20 6.64404 20H1.29604Z" fill="#1E1E1E"/>
<path d="M28.4466 20.28C25.6466 20.28 23.416 19.636 21.7546 18.348C20.0933 17.06 19.2066 15.184 19.0946 12.72C19.076 12.216 19.0666 11.404 19.0666 10.284C19.0666 9.14533 19.076 8.31466 19.0946 7.792C19.1506 6.18666 19.5706 4.80533 20.3546 3.64799C21.1573 2.49066 22.2493 1.61333 23.6306 1.016C25.012 0.418662 26.6173 0.119995 28.4466 0.119995C30.276 0.119995 31.8813 0.418662 33.2626 1.016C34.644 1.61333 35.7266 2.49066 36.5106 3.64799C37.3133 4.80533 37.7426 6.18666 37.7986 7.792C37.836 8.83733 37.8546 9.668 37.8546 10.284C37.8546 10.9 37.836 11.712 37.7986 12.72C37.6866 15.184 36.8 17.06 35.1386 18.348C33.4773 19.636 31.2466 20.28 28.4466 20.28ZM28.4466 14.82C29.0813 14.82 29.576 14.6333 29.9306 14.26C30.304 13.8867 30.5 13.3173 30.5186 12.552C30.556 11.4693 30.5746 10.676 30.5746 10.172C30.5746 9.63066 30.556 8.856 30.5186 7.848C30.5 7.08266 30.304 6.51333 29.9306 6.14C29.5573 5.76666 29.0626 5.58 28.4466 5.58C27.8306 5.58 27.336 5.76666 26.9626 6.14C26.5893 6.51333 26.3933 7.08266 26.3746 7.848C26.356 8.352 26.3466 9.12666 26.3466 10.172C26.3466 11.2173 26.356 12.0107 26.3746 12.552C26.3933 13.3173 26.58 13.8867 26.9346 14.26C27.308 14.6333 27.812 14.82 28.4466 14.82Z" fill="#1E1E1E"/>
<path d="M41.1359 20C40.9305 20 40.7532 19.9253 40.6039 19.776C40.4545 19.6267 40.3799 19.4493 40.3799 19.244V1.156C40.3799 0.950662 40.4545 0.773329 40.6039 0.623995C40.7532 0.474662 40.9305 0.399995 41.1359 0.399995H46.7359C46.9412 0.399995 47.1185 0.474662 47.2679 0.623995C47.4172 0.773329 47.4919 0.950662 47.4919 1.156V14.26H55.2479C55.4532 14.26 55.6306 14.3347 55.7799 14.484C55.9292 14.6333 56.0039 14.8107 56.0039 15.016V19.244C56.0039 19.4493 55.9292 19.6267 55.7799 19.776C55.6306 19.9253 55.4532 20 55.2479 20H41.1359Z" fill="#1E1E1E"/>
<path d="M56.9832 20C56.8152 20 56.6659 19.944 56.5352 19.832C56.4232 19.7013 56.3672 19.552 56.3672 19.384C56.3672 19.3093 56.3766 19.244 56.3952 19.188L62.6392 1.32399C62.7139 1.08133 62.8539 0.866662 63.0592 0.679995C63.2646 0.493328 63.5446 0.399995 63.8992 0.399995H69.9752C70.3299 0.399995 70.6099 0.493328 70.8152 0.679995C71.0206 0.866662 71.1606 1.08133 71.2352 1.32399L77.4792 19.188C77.4979 19.244 77.5072 19.3093 77.5072 19.384C77.5072 19.552 77.4419 19.7013 77.3112 19.832C77.1992 19.944 77.0592 20 76.8912 20H71.7112C71.1512 20 70.7872 19.7667 70.6192 19.3L69.9472 17.452H63.9272L63.2552 19.3C63.0872 19.7667 62.7232 20 62.1632 20H56.9832ZM68.5192 11.992L66.9232 6.784L65.3552 11.992H68.5192Z" fill="#1E1E1E"/>
<path d="M81.1923 20C80.8376 20 80.539 19.8973 80.2963 19.692C80.0723 19.468 79.9416 19.216 79.9043 18.936L77.3283 1.1V1.016C77.3283 0.847995 77.3843 0.707995 77.4963 0.595996C77.627 0.465328 77.7763 0.399995 77.9443 0.399995H83.1523C83.4883 0.399995 83.731 0.455995 83.8803 0.567996C84.0483 0.679996 84.1416 0.875995 84.1603 1.156L85.1123 9.052L86.2603 5.552C86.447 5.01066 86.7643 4.74 87.2123 4.74H90.0683C90.5163 4.74 90.8336 5.01066 91.0203 5.552L92.1683 9.024L93.1203 1.156C93.139 0.875995 93.223 0.679996 93.3723 0.567996C93.5403 0.455995 93.7923 0.399995 94.1283 0.399995H99.3363C99.5043 0.399995 99.6443 0.465328 99.7563 0.595996C99.887 0.707995 99.9523 0.847995 99.9523 1.016V1.1L97.3763 18.936C97.339 19.216 97.199 19.468 96.9563 19.692C96.7323 19.8973 96.443 20 96.0883 20H92.0843C91.7483 20 91.487 19.916 91.3003 19.748C91.1323 19.58 91.011 19.412 90.9363 19.244L88.6403 13.504L86.3443 19.244C86.2696 19.412 86.139 19.58 85.9523 19.748C85.7843 19.916 85.5323 20 85.1963 20H81.1923Z" fill="#1E1E1E"/>
<path d="M110.833 20.28C108.033 20.28 105.803 19.636 104.141 18.348C102.48 17.06 101.593 15.184 101.481 12.72C101.463 12.216 101.453 11.404 101.453 10.284C101.453 9.14533 101.463 8.31466 101.481 7.792C101.537 6.18666 101.957 4.80533 102.741 3.64799C103.544 2.49066 104.636 1.61333 106.017 1.016C107.399 0.418662 109.004 0.119995 110.833 0.119995C112.663 0.119995 114.268 0.418662 115.649 1.016C117.031 1.61333 118.113 2.49066 118.897 3.64799C119.7 4.80533 120.129 6.18666 120.185 7.792C120.223 8.83733 120.241 9.668 120.241 10.284C120.241 10.9 120.223 11.712 120.185 12.72C120.073 15.184 119.187 17.06 117.525 18.348C115.864 19.636 113.633 20.28 110.833 20.28ZM110.833 14.82C111.468 14.82 111.963 14.6333 112.317 14.26C112.691 13.8867 112.887 13.3173 112.905 12.552C112.943 11.4693 112.961 10.676 112.961 10.172C112.961 9.63066 112.943 8.856 112.905 7.848C112.887 7.08266 112.691 6.51333 112.317 6.14C111.944 5.76666 111.449 5.58 110.833 5.58C110.217 5.58 109.723 5.76666 109.349 6.14C108.976 6.51333 108.78 7.08266 108.761 7.848C108.743 8.352 108.733 9.12666 108.733 10.172C108.733 11.2173 108.743 12.0107 108.761 12.552C108.78 13.3173 108.967 13.8867 109.321 14.26C109.695 14.6333 110.199 14.82 110.833 14.82Z" fill="#1E1E1E"/>
<path d="M123.523 20C123.317 20 123.14 19.9253 122.991 19.776C122.841 19.6267 122.767 19.4493 122.767 19.244V1.156C122.767 0.950662 122.841 0.773329 122.991 0.623995C123.14 0.474662 123.317 0.399995 123.523 0.399995H129.123C129.328 0.399995 129.505 0.474662 129.655 0.623995C129.804 0.773329 129.879 0.950662 129.879 1.156V14.26H137.635C137.84 14.26 138.017 14.3347 138.167 14.484C138.316 14.6333 138.391 14.8107 138.391 15.016V19.244C138.391 19.4493 138.316 19.6267 138.167 19.776C138.017 19.9253 137.84 20 137.635 20H123.523Z" fill="#1E1E1E"/>
<path d="M141.05 20C140.845 20 140.667 19.9253 140.518 19.776C140.369 19.6267 140.294 19.4493 140.294 19.244V1.156C140.294 0.950662 140.369 0.773329 140.518 0.623995C140.667 0.474662 140.845 0.399995 141.05 0.399995H155.414C155.619 0.399995 155.797 0.474662 155.946 0.623995C156.095 0.773329 156.17 0.950662 156.17 1.156V5.104C156.17 5.30933 156.095 5.48666 155.946 5.636C155.797 5.78533 155.619 5.86 155.414 5.86H147.014V7.624H154.798C155.003 7.624 155.181 7.69866 155.33 7.848C155.479 7.99733 155.554 8.17466 155.554 8.38V12.02C155.554 12.2253 155.479 12.4027 155.33 12.552C155.181 12.7013 155.003 12.776 154.798 12.776H147.014V14.54H155.638C155.843 14.54 156.021 14.6147 156.17 14.764C156.319 14.9133 156.394 15.0907 156.394 15.296V19.244C156.394 19.4493 156.319 19.6267 156.17 19.776C156.021 19.9253 155.843 20 155.638 20H141.05Z" fill="#1E1E1E"/>
</svg>
