<svg width="50" height="50" viewBox="0 0 50 50" fill="none" xmlns="http://www.w3.org/2000/svg">
<circle cx="25" cy="25" r="25" fill="#F0F8FB"/>
<path fill-rule="evenodd" clip-rule="evenodd" d="M18.1188 13.8227C18.1188 15.3918 16.9377 16.6473 15.0412 16.6473H15.0064C13.1805 16.6473 12 15.3918 12 13.8227C12 12.2204 13.2164 11 15.077 11C16.9377 11 18.0835 12.2204 18.1188 13.8227ZM17.7605 18.8778V35.2196H12.3216V18.8778H17.7605ZM37.3752 35.2196L37.3754 25.8497C37.3754 20.8303 34.6922 18.4941 31.1131 18.4941C28.2254 18.4941 26.9326 20.0802 26.2107 21.1929V18.8783H20.7711C20.8428 20.4117 20.7711 35.22 20.7711 35.22H26.2107V26.0934C26.2107 25.605 26.246 25.1178 26.3898 24.7681C26.7829 23.7924 27.6779 22.7822 29.1805 22.7822C31.1494 22.7822 31.9365 24.2807 31.9365 26.4767V35.2196H37.3752Z" fill="#14586D"/>
</svg>
